<svg width="332" height="112" viewBox="0 0 332 112" fill="none" xmlns="http://www.w3.org/2000/svg">
<g clip-path="url(#clip0_48_346)">
<path d="M71.1689 50.0524L70.068 39.0416C70.0329 38.6918 69.878 38.3646 69.6293 38.116L63.8841 32.3708C63.6355 32.1221 63.3085 31.9671 62.9585 31.9322L51.9476 30.8311C49.3609 30.572 46.8228 31.4784 44.9843 33.3168L22.231 56.0699C20.7923 57.5085 20 59.4215 20 61.4561C20 63.4907 20.7923 65.4036 22.231 66.8422L35.1578 79.769C36.5965 81.2077 38.5094 82 40.544 82C42.5786 82 44.4915 81.2077 45.9301 79.769L68.6834 57.0159C70.5218 55.1774 71.4277 52.6393 71.1689 50.0524ZM61.3705 46.3748C59.784 47.9613 57.2117 47.9613 55.6252 46.3748C54.0387 44.7882 54.0387 42.216 55.6252 40.6295C57.2117 39.043 59.784 39.043 61.3705 40.6295C62.957 42.216 62.957 44.7882 61.3705 46.3748Z" fill="url(#paint0_linear_48_346)"/>
<path d="M51.5469 52.4375L52.3084 51.676C52.9033 51.0811 52.9033 50.1165 52.3084 49.5216C51.7134 48.9266 50.7489 48.9266 50.1539 49.5216L49.2674 50.4081C49.1283 50.3239 48.986 50.2409 48.8366 50.1607C47.0096 49.1796 44.7606 49.3308 42.9672 50.5554C41.327 51.6753 40.4389 53.4533 40.6494 55.1956C40.7552 56.0713 41.0069 57.0284 41.4572 58.2183L35.9862 63.6893C35.3848 62.9556 35.1157 62.3104 34.8558 61.0671C34.6836 60.2435 33.8763 59.7158 33.0528 59.8877C32.2293 60.0598 31.7011 60.867 31.8734 61.6906C32.2861 63.665 32.8618 64.7444 33.8247 65.8508L32.9182 66.7573C32.3232 67.3523 32.3232 68.3168 32.9182 68.9118C33.5131 69.5067 34.4777 69.5067 35.0726 68.9118L36.0749 67.9095C37.0581 68.5325 38.1666 68.8826 39.3443 68.9324C39.4394 68.9365 39.5345 68.9384 39.6294 68.9384C41.0502 68.9384 42.4562 68.4907 43.6175 67.6638C44.7666 66.8453 45.6059 65.689 45.9803 64.4076C46.3985 62.9769 46.2452 61.437 45.537 59.9547C45.3767 59.6192 45.215 59.2748 45.057 58.9272L49.3472 54.637C49.7552 55.3511 49.7582 55.9195 49.7577 55.9597C49.7049 56.7956 50.3372 57.5181 51.1738 57.5756C52.0131 57.6331 52.7404 56.9994 52.798 56.16C52.8583 55.2844 52.5898 53.8364 51.5469 52.4375ZM42.7878 61.2681C43.8614 63.5155 42.3414 64.832 41.8501 65.182C40.9391 65.8309 39.5962 66.139 38.3338 65.6506L42.7647 61.2197C42.7726 61.2359 42.78 61.2517 42.7878 61.2681ZM43.6743 54.83C43.6019 54.2306 43.9988 53.5404 44.6854 53.0716C45.2628 52.6773 46.1368 52.4016 46.9983 52.6773L43.8711 55.8045C43.7799 55.4619 43.7111 55.1341 43.6743 54.83ZM58.8567 43.1432C58.2618 42.5482 58.2618 41.5837 58.8567 40.9887L69.3991 30.4462C69.9941 29.8513 70.9586 29.8513 71.5536 30.4462C72.1485 31.0412 72.1485 32.0057 71.5536 32.6007L61.0113 43.1432C60.4163 43.738 59.4517 43.738 58.8567 43.1432Z" fill="url(#paint1_linear_48_346)"/>
</g>
<path d="M93.984 25.4C95.088 25.4 95.922 25.67 96.486 26.21C97.062 26.75 97.35 27.536 97.35 28.568C97.35 29.108 97.218 29.6 96.954 30.044C96.702 30.476 96.324 30.818 95.82 31.07C95.328 31.322 94.71 31.454 93.966 31.466L94.002 30.8C94.398 30.8 94.824 30.854 95.28 30.962C95.748 31.07 96.186 31.256 96.594 31.52C97.002 31.784 97.338 32.144 97.602 32.6C97.866 33.044 97.998 33.602 97.998 34.274C97.998 35.006 97.878 35.618 97.638 36.11C97.398 36.59 97.08 36.968 96.684 37.244C96.288 37.52 95.85 37.718 95.37 37.838C94.902 37.946 94.44 38 93.984 38H89.376C89.124 38 88.908 37.916 88.728 37.748C88.548 37.568 88.458 37.346 88.458 37.082V26.318C88.458 26.054 88.548 25.838 88.728 25.67C88.908 25.49 89.124 25.4 89.376 25.4H93.984ZM93.732 27.164H90.186L90.402 26.876V30.746L90.204 30.548H93.768C94.2 30.536 94.578 30.392 94.902 30.116C95.238 29.828 95.406 29.408 95.406 28.856C95.406 28.292 95.256 27.872 94.956 27.596C94.656 27.308 94.248 27.164 93.732 27.164ZM93.858 32.312H90.276L90.402 32.186V36.434L90.258 36.272H93.966C94.59 36.272 95.094 36.11 95.478 35.786C95.862 35.45 96.054 34.946 96.054 34.274C96.054 33.71 95.94 33.29 95.712 33.014C95.484 32.738 95.202 32.552 94.866 32.456C94.53 32.36 94.194 32.312 93.858 32.312ZM104.43 38.18C103.434 38.18 102.57 37.976 101.838 37.568C101.106 37.148 100.536 36.578 100.128 35.858C99.7318 35.126 99.5338 34.292 99.5338 33.356C99.5338 32.3 99.7438 31.4 100.164 30.656C100.596 29.9 101.154 29.324 101.838 28.928C102.522 28.52 103.248 28.316 104.016 28.316C104.604 28.316 105.162 28.436 105.69 28.676C106.218 28.904 106.686 29.228 107.094 29.648C107.514 30.056 107.844 30.542 108.084 31.106C108.324 31.658 108.45 32.264 108.462 32.924C108.45 33.164 108.354 33.362 108.174 33.518C107.994 33.674 107.784 33.752 107.544 33.752H100.542L100.11 32.222H106.878L106.536 32.546V32.096C106.512 31.676 106.374 31.31 106.122 30.998C105.87 30.674 105.558 30.428 105.186 30.26C104.814 30.08 104.424 29.99 104.016 29.99C103.656 29.99 103.308 30.05 102.972 30.17C102.648 30.278 102.354 30.458 102.09 30.71C101.838 30.962 101.634 31.298 101.478 31.718C101.334 32.126 101.262 32.636 101.262 33.248C101.262 33.908 101.4 34.484 101.676 34.976C101.952 35.468 102.324 35.852 102.792 36.128C103.26 36.392 103.776 36.524 104.34 36.524C104.784 36.524 105.15 36.482 105.438 36.398C105.726 36.302 105.966 36.188 106.158 36.056C106.35 35.924 106.518 35.798 106.662 35.678C106.842 35.57 107.022 35.516 107.202 35.516C107.418 35.516 107.598 35.594 107.742 35.75C107.886 35.894 107.958 36.068 107.958 36.272C107.958 36.536 107.826 36.776 107.562 36.992C107.238 37.304 106.788 37.58 106.212 37.82C105.648 38.06 105.054 38.18 104.43 38.18ZM109.938 36.524C109.83 36.356 109.782 36.164 109.794 35.948C109.806 35.72 109.932 35.528 110.172 35.372C110.34 35.264 110.514 35.222 110.694 35.246C110.886 35.258 111.066 35.348 111.234 35.516C111.57 35.888 111.942 36.182 112.35 36.398C112.77 36.614 113.274 36.722 113.862 36.722C114.102 36.71 114.348 36.674 114.6 36.614C114.852 36.542 115.068 36.422 115.248 36.254C115.428 36.074 115.518 35.816 115.518 35.48C115.518 35.18 115.422 34.94 115.23 34.76C115.038 34.58 114.786 34.436 114.474 34.328C114.162 34.208 113.826 34.1 113.466 34.004C113.082 33.896 112.692 33.776 112.296 33.644C111.912 33.512 111.564 33.344 111.252 33.14C110.94 32.924 110.682 32.648 110.478 32.312C110.286 31.976 110.19 31.562 110.19 31.07C110.19 30.506 110.346 30.02 110.658 29.612C110.982 29.204 111.396 28.886 111.9 28.658C112.416 28.43 112.974 28.316 113.574 28.316C113.922 28.316 114.288 28.364 114.672 28.46C115.056 28.544 115.428 28.682 115.788 28.874C116.148 29.066 116.46 29.318 116.724 29.63C116.844 29.786 116.91 29.972 116.922 30.188C116.946 30.404 116.85 30.596 116.634 30.764C116.49 30.884 116.316 30.938 116.112 30.926C115.908 30.914 115.74 30.848 115.608 30.728C115.38 30.44 115.086 30.218 114.726 30.062C114.366 29.894 113.958 29.81 113.502 29.81C113.274 29.81 113.034 29.846 112.782 29.918C112.542 29.978 112.338 30.092 112.17 30.26C112.002 30.428 111.918 30.674 111.918 30.998C111.918 31.298 112.014 31.538 112.206 31.718C112.41 31.898 112.674 32.048 112.998 32.168C113.322 32.288 113.676 32.396 114.06 32.492C114.432 32.588 114.798 32.702 115.158 32.834C115.53 32.966 115.86 33.14 116.148 33.356C116.448 33.56 116.688 33.83 116.868 34.166C117.06 34.49 117.156 34.904 117.156 35.408C117.156 35.996 116.982 36.5 116.634 36.92C116.298 37.328 115.866 37.64 115.338 37.856C114.822 38.072 114.276 38.18 113.7 38.18C113.016 38.18 112.332 38.06 111.648 37.82C110.976 37.568 110.406 37.136 109.938 36.524ZM118.966 28.64H123.196C123.436 28.64 123.634 28.724 123.79 28.892C123.958 29.048 124.042 29.246 124.042 29.486C124.042 29.714 123.958 29.906 123.79 30.062C123.634 30.218 123.436 30.296 123.196 30.296H118.966C118.726 30.296 118.522 30.218 118.354 30.062C118.198 29.894 118.12 29.696 118.12 29.468C118.12 29.228 118.198 29.03 118.354 28.874C118.522 28.718 118.726 28.64 118.966 28.64ZM120.856 26.3C121.12 26.3 121.336 26.39 121.504 26.57C121.672 26.738 121.756 26.954 121.756 27.218V35.57C121.756 35.786 121.792 35.96 121.864 36.092C121.936 36.224 122.032 36.314 122.152 36.362C122.284 36.41 122.416 36.434 122.548 36.434C122.68 36.434 122.794 36.41 122.89 36.362C122.998 36.314 123.124 36.29 123.268 36.29C123.412 36.29 123.544 36.356 123.664 36.488C123.784 36.62 123.844 36.8 123.844 37.028C123.844 37.316 123.688 37.55 123.376 37.73C123.064 37.91 122.728 38 122.368 38C122.164 38 121.924 37.982 121.648 37.946C121.372 37.91 121.102 37.82 120.838 37.676C120.586 37.532 120.376 37.304 120.208 36.992C120.04 36.668 119.956 36.218 119.956 35.642V27.218C119.956 26.954 120.04 26.738 120.208 26.57C120.388 26.39 120.604 26.3 120.856 26.3ZM136.319 25.4C136.955 25.4 137.543 25.574 138.083 25.922C138.623 26.258 139.055 26.72 139.379 27.308C139.703 27.896 139.865 28.556 139.865 29.288C139.865 30.02 139.703 30.686 139.379 31.286C139.055 31.874 138.623 32.348 138.083 32.708C137.543 33.056 136.955 33.23 136.319 33.23H132.845L132.989 32.942V37.082C132.989 37.346 132.905 37.568 132.737 37.748C132.581 37.916 132.371 38 132.107 38C131.855 38 131.645 37.916 131.477 37.748C131.321 37.568 131.243 37.346 131.243 37.082V26.318C131.243 26.054 131.333 25.838 131.513 25.67C131.693 25.49 131.909 25.4 132.161 25.4H136.319ZM136.319 31.502C136.631 31.502 136.913 31.4 137.165 31.196C137.429 30.992 137.639 30.722 137.795 30.386C137.963 30.05 138.047 29.684 138.047 29.288C138.047 28.892 137.963 28.532 137.795 28.208C137.639 27.884 137.429 27.626 137.165 27.434C136.913 27.23 136.631 27.128 136.319 27.128H132.809L132.989 26.858V31.736L132.827 31.502H136.319ZM142.756 38C142.492 38 142.276 37.916 142.108 37.748C141.94 37.568 141.856 37.346 141.856 37.082V29.45C141.856 29.186 141.94 28.97 142.108 28.802C142.276 28.622 142.492 28.532 142.756 28.532C143.008 28.532 143.218 28.622 143.386 28.802C143.566 28.97 143.656 29.186 143.656 29.45V31.466L143.476 30.692C143.572 30.356 143.716 30.044 143.908 29.756C144.112 29.468 144.352 29.216 144.628 29C144.904 28.784 145.21 28.616 145.546 28.496C145.894 28.376 146.254 28.316 146.626 28.316C146.938 28.316 147.208 28.4 147.436 28.568C147.664 28.736 147.778 28.946 147.778 29.198C147.778 29.522 147.694 29.762 147.526 29.918C147.358 30.062 147.172 30.134 146.968 30.134C146.788 30.134 146.614 30.098 146.446 30.026C146.278 29.942 146.08 29.9 145.852 29.9C145.6 29.9 145.342 29.966 145.078 30.098C144.814 30.23 144.574 30.428 144.358 30.692C144.142 30.944 143.968 31.244 143.836 31.592C143.716 31.94 143.656 32.33 143.656 32.762V37.082C143.656 37.346 143.566 37.568 143.386 37.748C143.218 37.916 143.008 38 142.756 38ZM151.071 37.082C151.071 37.346 150.987 37.568 150.819 37.748C150.651 37.916 150.435 38 150.171 38C149.919 38 149.703 37.916 149.523 37.748C149.355 37.568 149.271 37.346 149.271 37.082V29.378C149.271 29.114 149.355 28.898 149.523 28.73C149.703 28.55 149.919 28.46 150.171 28.46C150.435 28.46 150.651 28.55 150.819 28.73C150.987 28.898 151.071 29.114 151.071 29.378V37.082ZM150.153 27.272C149.805 27.272 149.553 27.212 149.397 27.092C149.241 26.96 149.163 26.744 149.163 26.444V26.156C149.163 25.856 149.247 25.646 149.415 25.526C149.583 25.406 149.835 25.346 150.171 25.346C150.531 25.346 150.789 25.412 150.945 25.544C151.101 25.664 151.179 25.868 151.179 26.156V26.444C151.179 26.756 151.095 26.972 150.927 27.092C150.771 27.212 150.513 27.272 150.153 27.272ZM157.686 28.316C158.334 28.316 158.91 28.388 159.414 28.532C159.918 28.664 160.308 28.856 160.584 29.108C160.872 29.348 161.016 29.63 161.016 29.954C161.016 30.158 160.956 30.35 160.836 30.53C160.716 30.698 160.536 30.782 160.296 30.782C160.128 30.782 159.984 30.752 159.864 30.692C159.756 30.632 159.654 30.56 159.558 30.476C159.462 30.392 159.342 30.308 159.198 30.224C159.066 30.152 158.868 30.092 158.604 30.044C158.352 29.996 158.124 29.972 157.92 29.972C157.284 29.972 156.732 30.116 156.264 30.404C155.808 30.692 155.448 31.082 155.184 31.574C154.932 32.066 154.806 32.624 154.806 33.248C154.806 33.872 154.932 34.43 155.184 34.922C155.448 35.414 155.802 35.804 156.246 36.092C156.702 36.38 157.23 36.524 157.83 36.524C158.19 36.524 158.484 36.5 158.712 36.452C158.94 36.392 159.138 36.32 159.306 36.236C159.486 36.128 159.636 36.02 159.756 35.912C159.888 35.792 160.068 35.732 160.296 35.732C160.56 35.732 160.758 35.816 160.89 35.984C161.034 36.14 161.106 36.338 161.106 36.578C161.106 36.842 160.944 37.1 160.62 37.352C160.308 37.592 159.888 37.79 159.36 37.946C158.832 38.102 158.25 38.18 157.614 38.18C156.678 38.18 155.862 37.964 155.166 37.532C154.482 37.1 153.948 36.512 153.564 35.768C153.192 35.024 153.006 34.184 153.006 33.248C153.006 32.3 153.204 31.46 153.6 30.728C153.996 29.984 154.548 29.396 155.256 28.964C155.964 28.532 156.774 28.316 157.686 28.316ZM167.236 38.18C166.24 38.18 165.376 37.976 164.644 37.568C163.912 37.148 163.342 36.578 162.934 35.858C162.538 35.126 162.34 34.292 162.34 33.356C162.34 32.3 162.55 31.4 162.97 30.656C163.402 29.9 163.96 29.324 164.644 28.928C165.328 28.52 166.054 28.316 166.822 28.316C167.41 28.316 167.968 28.436 168.496 28.676C169.024 28.904 169.492 29.228 169.9 29.648C170.32 30.056 170.65 30.542 170.89 31.106C171.13 31.658 171.256 32.264 171.268 32.924C171.256 33.164 171.16 33.362 170.98 33.518C170.8 33.674 170.59 33.752 170.35 33.752H163.348L162.916 32.222H169.684L169.342 32.546V32.096C169.318 31.676 169.18 31.31 168.928 30.998C168.676 30.674 168.364 30.428 167.992 30.26C167.62 30.08 167.23 29.99 166.822 29.99C166.462 29.99 166.114 30.05 165.778 30.17C165.454 30.278 165.16 30.458 164.896 30.71C164.644 30.962 164.44 31.298 164.284 31.718C164.14 32.126 164.068 32.636 164.068 33.248C164.068 33.908 164.206 34.484 164.482 34.976C164.758 35.468 165.13 35.852 165.598 36.128C166.066 36.392 166.582 36.524 167.146 36.524C167.59 36.524 167.956 36.482 168.244 36.398C168.532 36.302 168.772 36.188 168.964 36.056C169.156 35.924 169.324 35.798 169.468 35.678C169.648 35.57 169.828 35.516 170.008 35.516C170.224 35.516 170.404 35.594 170.548 35.75C170.692 35.894 170.764 36.068 170.764 36.272C170.764 36.536 170.632 36.776 170.368 36.992C170.044 37.304 169.594 37.58 169.018 37.82C168.454 38.06 167.86 38.18 167.236 38.18ZM172.745 36.524C172.637 36.356 172.589 36.164 172.601 35.948C172.613 35.72 172.739 35.528 172.979 35.372C173.147 35.264 173.321 35.222 173.501 35.246C173.693 35.258 173.873 35.348 174.041 35.516C174.377 35.888 174.749 36.182 175.157 36.398C175.577 36.614 176.081 36.722 176.669 36.722C176.909 36.71 177.155 36.674 177.407 36.614C177.659 36.542 177.875 36.422 178.055 36.254C178.235 36.074 178.325 35.816 178.325 35.48C178.325 35.18 178.229 34.94 178.037 34.76C177.845 34.58 177.593 34.436 177.281 34.328C176.969 34.208 176.633 34.1 176.273 34.004C175.889 33.896 175.499 33.776 175.103 33.644C174.719 33.512 174.371 33.344 174.059 33.14C173.747 32.924 173.489 32.648 173.285 32.312C173.093 31.976 172.997 31.562 172.997 31.07C172.997 30.506 173.153 30.02 173.465 29.612C173.789 29.204 174.203 28.886 174.707 28.658C175.223 28.43 175.781 28.316 176.381 28.316C176.729 28.316 177.095 28.364 177.479 28.46C177.863 28.544 178.235 28.682 178.595 28.874C178.955 29.066 179.267 29.318 179.531 29.63C179.651 29.786 179.717 29.972 179.729 30.188C179.753 30.404 179.657 30.596 179.441 30.764C179.297 30.884 179.123 30.938 178.919 30.926C178.715 30.914 178.547 30.848 178.415 30.728C178.187 30.44 177.893 30.218 177.533 30.062C177.173 29.894 176.765 29.81 176.309 29.81C176.081 29.81 175.841 29.846 175.589 29.918C175.349 29.978 175.145 30.092 174.977 30.26C174.809 30.428 174.725 30.674 174.725 30.998C174.725 31.298 174.821 31.538 175.013 31.718C175.217 31.898 175.481 32.048 175.805 32.168C176.129 32.288 176.483 32.396 176.867 32.492C177.239 32.588 177.605 32.702 177.965 32.834C178.337 32.966 178.667 33.14 178.955 33.356C179.255 33.56 179.495 33.83 179.675 34.166C179.867 34.49 179.963 34.904 179.963 35.408C179.963 35.996 179.789 36.5 179.441 36.92C179.105 37.328 178.673 37.64 178.145 37.856C177.629 38.072 177.083 38.18 176.507 38.18C175.823 38.18 175.139 38.06 174.455 37.82C173.783 37.568 173.213 37.136 172.745 36.524ZM190.634 38.18C189.782 38.18 189.02 37.994 188.348 37.622C187.676 37.238 187.148 36.74 186.764 36.128C186.38 35.516 186.188 34.868 186.188 34.184C186.188 33.608 186.29 33.074 186.494 32.582C186.71 32.078 187.028 31.634 187.448 31.25C187.88 30.866 188.426 30.548 189.086 30.296L190.274 31.52C189.41 31.712 188.816 32.018 188.492 32.438C188.18 32.858 188.024 33.35 188.024 33.914C188.024 34.334 188.126 34.742 188.33 35.138C188.534 35.522 188.852 35.84 189.284 36.092C189.728 36.344 190.304 36.47 191.012 36.47C191.648 36.47 192.206 36.344 192.686 36.092C193.178 35.828 193.598 35.486 193.946 35.066C194.294 34.634 194.576 34.16 194.792 33.644C195.008 33.116 195.158 32.576 195.242 32.024C195.266 31.856 195.332 31.73 195.44 31.646C195.548 31.55 195.728 31.502 195.98 31.502C196.244 31.502 196.448 31.604 196.592 31.808C196.748 32.012 196.808 32.258 196.772 32.546C196.664 33.242 196.46 33.926 196.16 34.598C195.86 35.258 195.458 35.864 194.954 36.416C194.45 36.956 193.838 37.388 193.118 37.712C192.398 38.024 191.57 38.18 190.634 38.18ZM197.024 38C196.916 38 196.814 37.988 196.718 37.964C196.634 37.928 196.568 37.892 196.52 37.856C195.692 37.172 194.924 36.53 194.216 35.93C193.52 35.33 192.86 34.736 192.236 34.148C191.624 33.548 191.018 32.912 190.418 32.24C189.998 31.76 189.614 31.316 189.266 30.908C188.93 30.5 188.654 30.098 188.438 29.702C188.234 29.306 188.132 28.886 188.132 28.442C188.132 27.866 188.282 27.338 188.582 26.858C188.894 26.366 189.326 25.97 189.878 25.67C190.442 25.37 191.108 25.22 191.876 25.22C192.716 25.22 193.448 25.37 194.072 25.67C194.708 25.958 195.14 26.324 195.368 26.768C195.38 26.78 195.404 26.846 195.44 26.966C195.488 27.074 195.512 27.206 195.512 27.362C195.512 27.542 195.44 27.704 195.296 27.848C195.152 27.992 194.96 28.064 194.72 28.064C194.564 28.064 194.438 28.034 194.342 27.974C194.246 27.914 194.174 27.854 194.126 27.794C193.862 27.434 193.55 27.17 193.19 27.002C192.842 26.834 192.404 26.75 191.876 26.75C191.276 26.75 190.814 26.906 190.49 27.218C190.178 27.53 190.022 27.914 190.022 28.37C190.022 28.742 190.142 29.12 190.382 29.504C190.634 29.888 190.922 30.26 191.246 30.62C191.582 30.968 191.888 31.292 192.164 31.592C192.572 32.036 193.016 32.498 193.496 32.978C193.988 33.446 194.474 33.896 194.954 34.328C195.446 34.76 195.902 35.156 196.322 35.516C196.742 35.876 197.096 36.182 197.384 36.434C197.516 36.554 197.612 36.674 197.672 36.794C197.744 36.914 197.78 37.058 197.78 37.226C197.78 37.358 197.72 37.52 197.6 37.712C197.48 37.904 197.288 38 197.024 38ZM210.012 25.4C210.888 25.4 211.662 25.568 212.334 25.904C213.006 26.228 213.564 26.684 214.008 27.272C214.464 27.848 214.806 28.52 215.034 29.288C215.262 30.044 215.376 30.848 215.376 31.7C215.376 32.864 215.172 33.926 214.764 34.886C214.356 35.834 213.756 36.59 212.964 37.154C212.172 37.718 211.188 38 210.012 38H205.62C205.368 38 205.152 37.916 204.972 37.748C204.792 37.568 204.702 37.346 204.702 37.082V26.318C204.702 26.054 204.792 25.838 204.972 25.67C205.152 25.49 205.368 25.4 205.62 25.4H210.012ZM209.832 36.272C210.684 36.272 211.374 36.062 211.902 35.642C212.43 35.222 212.814 34.67 213.054 33.986C213.306 33.29 213.432 32.528 213.432 31.7C213.432 31.088 213.36 30.512 213.216 29.972C213.084 29.42 212.868 28.934 212.568 28.514C212.28 28.082 211.908 27.746 211.452 27.506C211.008 27.254 210.468 27.128 209.832 27.128H206.43L206.592 26.966V36.452L206.484 36.272H209.832ZM221.94 38.18C220.944 38.18 220.08 37.976 219.348 37.568C218.616 37.148 218.046 36.578 217.638 35.858C217.242 35.126 217.044 34.292 217.044 33.356C217.044 32.3 217.254 31.4 217.674 30.656C218.106 29.9 218.664 29.324 219.348 28.928C220.032 28.52 220.758 28.316 221.526 28.316C222.114 28.316 222.672 28.436 223.2 28.676C223.728 28.904 224.196 29.228 224.604 29.648C225.024 30.056 225.354 30.542 225.594 31.106C225.834 31.658 225.96 32.264 225.972 32.924C225.96 33.164 225.864 33.362 225.684 33.518C225.504 33.674 225.294 33.752 225.054 33.752H218.052L217.62 32.222H224.388L224.046 32.546V32.096C224.022 31.676 223.884 31.31 223.632 30.998C223.38 30.674 223.068 30.428 222.696 30.26C222.324 30.08 221.934 29.99 221.526 29.99C221.166 29.99 220.818 30.05 220.482 30.17C220.158 30.278 219.864 30.458 219.6 30.71C219.348 30.962 219.144 31.298 218.988 31.718C218.844 32.126 218.772 32.636 218.772 33.248C218.772 33.908 218.91 34.484 219.186 34.976C219.462 35.468 219.834 35.852 220.302 36.128C220.77 36.392 221.286 36.524 221.85 36.524C222.294 36.524 222.66 36.482 222.948 36.398C223.236 36.302 223.476 36.188 223.668 36.056C223.86 35.924 224.028 35.798 224.172 35.678C224.352 35.57 224.532 35.516 224.712 35.516C224.928 35.516 225.108 35.594 225.252 35.75C225.396 35.894 225.468 36.068 225.468 36.272C225.468 36.536 225.336 36.776 225.072 36.992C224.748 37.304 224.298 37.58 223.722 37.82C223.158 38.06 222.564 38.18 221.94 38.18ZM235.834 28.388C236.098 28.388 236.314 28.478 236.482 28.658C236.65 28.826 236.734 29.042 236.734 29.306V37.082C236.734 37.346 236.65 37.568 236.482 37.748C236.314 37.916 236.098 38 235.834 38C235.582 38 235.366 37.916 235.186 37.748C235.018 37.568 234.934 37.346 234.934 37.082V35.786L235.312 35.84C235.312 36.056 235.222 36.296 235.042 36.56C234.874 36.824 234.64 37.082 234.34 37.334C234.04 37.574 233.686 37.778 233.278 37.946C232.87 38.102 232.432 38.18 231.964 38.18C231.136 38.18 230.392 37.97 229.732 37.55C229.072 37.118 228.55 36.53 228.166 35.786C227.782 35.042 227.59 34.196 227.59 33.248C227.59 32.276 227.782 31.424 228.166 30.692C228.55 29.948 229.066 29.366 229.714 28.946C230.374 28.526 231.106 28.316 231.91 28.316C232.426 28.316 232.9 28.4 233.332 28.568C233.776 28.736 234.16 28.952 234.484 29.216C234.808 29.48 235.054 29.762 235.222 30.062C235.402 30.35 235.492 30.626 235.492 30.89L234.934 30.944V29.306C234.934 29.054 235.018 28.838 235.186 28.658C235.366 28.478 235.582 28.388 235.834 28.388ZM232.162 36.524C232.726 36.524 233.224 36.38 233.656 36.092C234.088 35.804 234.424 35.414 234.664 34.922C234.904 34.418 235.024 33.86 235.024 33.248C235.024 32.624 234.904 32.066 234.664 31.574C234.424 31.082 234.088 30.692 233.656 30.404C233.224 30.116 232.726 29.972 232.162 29.972C231.61 29.972 231.118 30.116 230.686 30.404C230.266 30.692 229.93 31.082 229.678 31.574C229.438 32.066 229.318 32.624 229.318 33.248C229.318 33.86 229.438 34.418 229.678 34.922C229.93 35.414 230.266 35.804 230.686 36.092C231.118 36.38 231.61 36.524 232.162 36.524ZM241.2 37.082C241.2 37.346 241.11 37.568 240.93 37.748C240.762 37.916 240.552 38 240.3 38C240.048 38 239.832 37.916 239.652 37.748C239.484 37.568 239.4 37.346 239.4 37.082V25.598C239.4 25.334 239.49 25.118 239.67 24.95C239.85 24.77 240.066 24.68 240.318 24.68C240.582 24.68 240.792 24.77 240.948 24.95C241.116 25.118 241.2 25.334 241.2 25.598V37.082ZM243.321 36.524C243.213 36.356 243.165 36.164 243.177 35.948C243.189 35.72 243.315 35.528 243.555 35.372C243.723 35.264 243.897 35.222 244.077 35.246C244.269 35.258 244.449 35.348 244.617 35.516C244.953 35.888 245.325 36.182 245.733 36.398C246.153 36.614 246.657 36.722 247.245 36.722C247.485 36.71 247.731 36.674 247.983 36.614C248.235 36.542 248.451 36.422 248.631 36.254C248.811 36.074 248.901 35.816 248.901 35.48C248.901 35.18 248.805 34.94 248.613 34.76C248.421 34.58 248.169 34.436 247.857 34.328C247.545 34.208 247.209 34.1 246.849 34.004C246.465 33.896 246.075 33.776 245.679 33.644C245.295 33.512 244.947 33.344 244.635 33.14C244.323 32.924 244.065 32.648 243.861 32.312C243.669 31.976 243.573 31.562 243.573 31.07C243.573 30.506 243.729 30.02 244.041 29.612C244.365 29.204 244.779 28.886 245.283 28.658C245.799 28.43 246.357 28.316 246.957 28.316C247.305 28.316 247.671 28.364 248.055 28.46C248.439 28.544 248.811 28.682 249.171 28.874C249.531 29.066 249.843 29.318 250.107 29.63C250.227 29.786 250.293 29.972 250.305 30.188C250.329 30.404 250.233 30.596 250.017 30.764C249.873 30.884 249.699 30.938 249.495 30.926C249.291 30.914 249.123 30.848 248.991 30.728C248.763 30.44 248.469 30.218 248.109 30.062C247.749 29.894 247.341 29.81 246.885 29.81C246.657 29.81 246.417 29.846 246.165 29.918C245.925 29.978 245.721 30.092 245.553 30.26C245.385 30.428 245.301 30.674 245.301 30.998C245.301 31.298 245.397 31.538 245.589 31.718C245.793 31.898 246.057 32.048 246.381 32.168C246.705 32.288 247.059 32.396 247.443 32.492C247.815 32.588 248.181 32.702 248.541 32.834C248.913 32.966 249.243 33.14 249.531 33.356C249.831 33.56 250.071 33.83 250.251 34.166C250.443 34.49 250.539 34.904 250.539 35.408C250.539 35.996 250.365 36.5 250.017 36.92C249.681 37.328 249.249 37.64 248.721 37.856C248.205 38.072 247.659 38.18 247.083 38.18C246.399 38.18 245.715 38.06 245.031 37.82C244.359 37.568 243.789 37.136 243.321 36.524Z" fill="#253D4E"/>
<path d="M93.048 56.8C93.8267 56.8 94.5093 56.9493 95.096 57.248C95.6933 57.536 96.1893 57.9413 96.584 58.464C96.9787 58.9867 97.272 59.5893 97.464 60.272C97.6667 60.944 97.768 61.6533 97.768 62.4C97.768 63.424 97.592 64.3627 97.24 65.216C96.888 66.0587 96.3653 66.736 95.672 67.248C94.9787 67.7493 94.104 68 93.048 68H89.048C88.8667 68 88.712 67.936 88.584 67.808C88.4667 67.68 88.408 67.5253 88.408 67.344V57.44C88.408 57.2587 88.4667 57.1093 88.584 56.992C88.712 56.864 88.8667 56.8 89.048 56.8H93.048ZM92.888 66.752C93.7093 66.752 94.376 66.5547 94.888 66.16C95.4107 65.7653 95.7893 65.2373 96.024 64.576C96.2693 63.9147 96.392 63.1893 96.392 62.4C96.392 61.824 96.3227 61.2747 96.184 60.752C96.056 60.2187 95.848 59.7493 95.56 59.344C95.2827 58.9387 94.92 58.6187 94.472 58.384C94.0347 58.1493 93.5067 58.032 92.888 58.032H89.608L89.736 57.904V66.912L89.64 66.752H92.888ZM107.649 63.84C107.649 64.672 107.463 65.4133 107.089 66.064C106.727 66.7147 106.231 67.2267 105.601 67.6C104.983 67.9733 104.284 68.16 103.505 68.16C102.727 68.16 102.023 67.9733 101.393 67.6C100.764 67.2267 100.263 66.7147 99.8894 66.064C99.5267 65.4133 99.3454 64.672 99.3454 63.84C99.3454 63.008 99.5267 62.2667 99.8894 61.616C100.263 60.9653 100.764 60.4533 101.393 60.08C102.023 59.7067 102.727 59.52 103.505 59.52C104.284 59.52 104.983 59.7067 105.601 60.08C106.231 60.4533 106.727 60.9653 107.089 61.616C107.463 62.2667 107.649 63.008 107.649 63.84ZM106.369 63.84C106.369 63.2213 106.241 62.6773 105.985 62.208C105.74 61.7387 105.399 61.3707 104.961 61.104C104.535 60.8373 104.049 60.704 103.505 60.704C102.961 60.704 102.471 60.8373 102.033 61.104C101.607 61.3707 101.265 61.7387 101.009 62.208C100.753 62.6773 100.625 63.2213 100.625 63.84C100.625 64.448 100.753 64.9867 101.009 65.456C101.265 65.9253 101.607 66.2987 102.033 66.576C102.471 66.8427 102.961 66.976 103.505 66.976C104.049 66.976 104.535 66.8427 104.961 66.576C105.399 66.2987 105.74 65.9253 105.985 65.456C106.241 64.9867 106.369 64.448 106.369 63.84ZM113.687 59.52C114.412 59.52 114.983 59.6693 115.399 59.968C115.815 60.2667 116.108 60.6667 116.279 61.168C116.46 61.6693 116.551 62.2293 116.551 62.848V67.344C116.551 67.5253 116.487 67.68 116.359 67.808C116.241 67.936 116.092 68 115.911 68C115.729 68 115.575 67.936 115.447 67.808C115.329 67.68 115.271 67.5253 115.271 67.344V62.88C115.271 62.4747 115.207 62.112 115.079 61.792C114.961 61.4613 114.759 61.2 114.471 61.008C114.193 60.8053 113.809 60.704 113.319 60.704C112.871 60.704 112.46 60.8053 112.087 61.008C111.713 61.2 111.415 61.4613 111.191 61.792C110.967 62.112 110.855 62.4747 110.855 62.88V67.344C110.855 67.5253 110.791 67.68 110.663 67.808C110.545 67.936 110.396 68 110.215 68C110.033 68 109.879 67.936 109.751 67.808C109.633 67.68 109.575 67.5253 109.575 67.344V60.368C109.575 60.1867 109.633 60.0373 109.751 59.92C109.879 59.792 110.033 59.728 110.215 59.728C110.407 59.728 110.561 59.792 110.679 59.92C110.796 60.0373 110.855 60.1867 110.855 60.368V61.504L110.535 61.856C110.588 61.5787 110.711 61.3013 110.903 61.024C111.095 60.736 111.335 60.48 111.623 60.256C111.911 60.032 112.231 59.856 112.583 59.728C112.935 59.5893 113.303 59.52 113.687 59.52ZM120.486 58.032C120.486 58.3413 120.396 58.6453 120.214 58.944C120.033 59.2427 119.809 59.4933 119.542 59.696C119.276 59.888 119.004 59.984 118.726 59.984C118.63 59.984 118.534 59.952 118.438 59.888C118.342 59.824 118.294 59.7013 118.294 59.52C118.294 59.3387 118.353 59.2373 118.47 59.216C118.588 59.184 118.716 59.1307 118.854 59.056C119.025 58.9707 119.153 58.8693 119.238 58.752C119.334 58.6347 119.382 58.496 119.382 58.336C119.382 58.1973 119.334 58.0907 119.238 58.016C119.153 57.9307 119.041 57.888 118.902 57.888C118.838 57.888 118.764 57.8987 118.678 57.92C118.604 57.9413 118.534 57.9733 118.47 58.016C118.396 57.9627 118.332 57.904 118.278 57.84C118.225 57.7653 118.204 57.664 118.214 57.536C118.225 57.312 118.337 57.1147 118.55 56.944C118.774 56.7733 119.03 56.688 119.318 56.688C119.67 56.688 119.953 56.8213 120.166 57.088C120.38 57.344 120.486 57.6587 120.486 58.032ZM122.13 59.776H125.89C126.06 59.776 126.199 59.8347 126.306 59.952C126.423 60.0693 126.482 60.208 126.482 60.368C126.482 60.5387 126.423 60.6827 126.306 60.8C126.199 60.9067 126.06 60.96 125.89 60.96H122.13C121.97 60.96 121.831 60.9013 121.714 60.784C121.596 60.6667 121.538 60.5227 121.538 60.352C121.538 60.192 121.596 60.0587 121.714 59.952C121.831 59.8347 121.97 59.776 122.13 59.776ZM123.81 57.6C123.991 57.6 124.14 57.664 124.258 57.792C124.375 57.9093 124.434 58.0587 124.434 58.24V65.968C124.434 66.224 124.471 66.416 124.546 66.544C124.62 66.672 124.716 66.7627 124.834 66.816C124.962 66.8587 125.084 66.88 125.202 66.88C125.308 66.88 125.399 66.864 125.474 66.832C125.559 66.7893 125.655 66.768 125.762 66.768C125.868 66.768 125.964 66.8213 126.05 66.928C126.146 67.024 126.194 67.152 126.194 67.312C126.194 67.504 126.082 67.6693 125.858 67.808C125.634 67.936 125.383 68 125.106 68C124.956 68 124.77 67.9893 124.546 67.968C124.332 67.9467 124.119 67.8773 123.906 67.76C123.692 67.6427 123.511 67.4507 123.362 67.184C123.223 66.9067 123.154 66.5227 123.154 66.032V58.24C123.154 58.0587 123.218 57.9093 123.346 57.792C123.474 57.664 123.628 57.6 123.81 57.6ZM136.62 59.6C137.346 59.6 137.932 59.7867 138.38 60.16C138.839 60.5227 139.143 61.04 139.292 61.712H139.052L139.164 61.424C139.292 61.1253 139.511 60.8373 139.82 60.56C140.13 60.2827 140.487 60.0533 140.892 59.872C141.298 59.6907 141.719 59.6 142.156 59.6C142.86 59.6 143.415 59.7547 143.82 60.064C144.226 60.3627 144.514 60.768 144.684 61.28C144.866 61.7813 144.956 62.3467 144.956 62.976V67.344C144.956 67.5253 144.892 67.68 144.764 67.808C144.647 67.936 144.498 68 144.316 68C144.124 68 143.97 67.936 143.852 67.808C143.735 67.68 143.676 67.5253 143.676 67.344V63.008C143.676 62.592 143.612 62.2187 143.484 61.888C143.367 61.5467 143.17 61.28 142.892 61.088C142.626 60.8853 142.258 60.784 141.788 60.784C141.351 60.784 140.951 60.8853 140.588 61.088C140.226 61.28 139.938 61.5467 139.724 61.888C139.511 62.2187 139.404 62.592 139.404 63.008V67.344C139.404 67.5253 139.346 67.68 139.228 67.808C139.111 67.936 138.956 68 138.764 68C138.583 68 138.428 67.936 138.3 67.808C138.183 67.68 138.124 67.5253 138.124 67.344V62.96C138.124 62.5547 138.066 62.192 137.948 61.872C137.842 61.5413 137.655 61.28 137.388 61.088C137.122 60.8853 136.754 60.784 136.284 60.784C135.858 60.784 135.468 60.8853 135.116 61.088C134.764 61.28 134.482 61.5413 134.268 61.872C134.055 62.192 133.948 62.5547 133.948 62.96V67.344C133.948 67.5253 133.884 67.68 133.756 67.808C133.639 67.936 133.49 68 133.308 68C133.127 68 132.972 67.936 132.844 67.808C132.727 67.68 132.668 67.5253 132.668 67.344V60.368C132.668 60.1867 132.727 60.0373 132.844 59.92C132.972 59.792 133.127 59.728 133.308 59.728C133.5 59.728 133.655 59.792 133.772 59.92C133.89 60.0373 133.948 60.1867 133.948 60.368V61.584L133.596 61.968C133.639 61.6907 133.746 61.4133 133.916 61.136C134.098 60.8587 134.327 60.6027 134.604 60.368C134.882 60.1333 135.191 59.9467 135.532 59.808C135.874 59.6693 136.236 59.6 136.62 59.6ZM148.557 67.344C148.557 67.5253 148.493 67.68 148.365 67.808C148.247 67.936 148.098 68 147.917 68C147.725 68 147.57 67.936 147.453 67.808C147.335 67.68 147.277 67.5253 147.277 67.344V60.24C147.277 60.0587 147.335 59.9093 147.453 59.792C147.581 59.664 147.735 59.6 147.917 59.6C148.098 59.6 148.247 59.664 148.365 59.792C148.493 59.9093 148.557 60.0587 148.557 60.24V67.344ZM147.917 58.528C147.65 58.528 147.453 58.4747 147.325 58.368C147.197 58.2613 147.133 58.096 147.133 57.872V57.648C147.133 57.424 147.202 57.2587 147.341 57.152C147.479 57.0453 147.677 56.992 147.933 56.992C148.189 56.992 148.381 57.0453 148.509 57.152C148.637 57.2587 148.701 57.424 148.701 57.648V57.872C148.701 58.096 148.631 58.2613 148.493 58.368C148.365 58.4747 148.173 58.528 147.917 58.528ZM150.392 66.688C150.296 66.5493 150.253 66.4053 150.264 66.256C150.275 66.096 150.365 65.9573 150.536 65.84C150.643 65.7653 150.765 65.7333 150.904 65.744C151.053 65.7547 151.187 65.824 151.304 65.952C151.603 66.304 151.944 66.5867 152.328 66.8C152.712 67.0027 153.181 67.104 153.736 67.104C153.992 67.0933 154.248 67.0507 154.504 66.976C154.76 66.9013 154.973 66.7733 155.144 66.592C155.325 66.4 155.416 66.1493 155.416 65.84C155.416 65.5413 155.325 65.3067 155.144 65.136C154.963 64.9547 154.728 64.8107 154.44 64.704C154.152 64.5867 153.837 64.4853 153.496 64.4C153.144 64.304 152.797 64.1973 152.456 64.08C152.115 63.952 151.805 63.7973 151.528 63.616C151.261 63.424 151.043 63.1893 150.872 62.912C150.712 62.624 150.632 62.2773 150.632 61.872C150.632 61.392 150.76 60.976 151.016 60.624C151.283 60.272 151.635 60 152.072 59.808C152.52 59.616 153.005 59.52 153.528 59.52C153.827 59.52 154.136 59.5573 154.456 59.632C154.787 59.696 155.107 59.8133 155.416 59.984C155.725 60.144 155.997 60.368 156.232 60.656C156.328 60.7627 156.381 60.896 156.392 61.056C156.403 61.216 156.333 61.36 156.184 61.488C156.067 61.5733 155.933 61.6107 155.784 61.6C155.645 61.5893 155.528 61.536 155.432 61.44C155.208 61.1733 154.925 60.9707 154.584 60.832C154.253 60.6827 153.885 60.608 153.48 60.608C153.224 60.608 152.973 60.6453 152.728 60.72C152.483 60.7947 152.275 60.9227 152.104 61.104C151.944 61.2747 151.864 61.5147 151.864 61.824C151.875 62.112 151.971 62.3467 152.152 62.528C152.333 62.7093 152.579 62.8587 152.888 62.976C153.197 63.0827 153.539 63.1893 153.912 63.296C154.253 63.3813 154.579 63.4827 154.888 63.6C155.208 63.7067 155.496 63.8507 155.752 64.032C156.008 64.2133 156.211 64.448 156.36 64.736C156.509 65.0133 156.584 65.3653 156.584 65.792C156.584 66.2827 156.445 66.7093 156.168 67.072C155.891 67.424 155.523 67.696 155.064 67.888C154.616 68.0693 154.131 68.16 153.608 68.16C153.021 68.16 152.44 68.048 151.864 67.824C151.299 67.6 150.808 67.2213 150.392 66.688ZM157.97 66.688C157.874 66.5493 157.831 66.4053 157.842 66.256C157.853 66.096 157.943 65.9573 158.114 65.84C158.221 65.7653 158.343 65.7333 158.482 65.744C158.631 65.7547 158.765 65.824 158.882 65.952C159.181 66.304 159.522 66.5867 159.906 66.8C160.29 67.0027 160.759 67.104 161.314 67.104C161.57 67.0933 161.826 67.0507 162.082 66.976C162.338 66.9013 162.551 66.7733 162.722 66.592C162.903 66.4 162.994 66.1493 162.994 65.84C162.994 65.5413 162.903 65.3067 162.722 65.136C162.541 64.9547 162.306 64.8107 162.018 64.704C161.73 64.5867 161.415 64.4853 161.074 64.4C160.722 64.304 160.375 64.1973 160.034 64.08C159.693 63.952 159.383 63.7973 159.106 63.616C158.839 63.424 158.621 63.1893 158.45 62.912C158.29 62.624 158.21 62.2773 158.21 61.872C158.21 61.392 158.338 60.976 158.594 60.624C158.861 60.272 159.213 60 159.65 59.808C160.098 59.616 160.583 59.52 161.106 59.52C161.405 59.52 161.714 59.5573 162.034 59.632C162.365 59.696 162.685 59.8133 162.994 59.984C163.303 60.144 163.575 60.368 163.81 60.656C163.906 60.7627 163.959 60.896 163.97 61.056C163.981 61.216 163.911 61.36 163.762 61.488C163.645 61.5733 163.511 61.6107 163.362 61.6C163.223 61.5893 163.106 61.536 163.01 61.44C162.786 61.1733 162.503 60.9707 162.162 60.832C161.831 60.6827 161.463 60.608 161.058 60.608C160.802 60.608 160.551 60.6453 160.306 60.72C160.061 60.7947 159.853 60.9227 159.682 61.104C159.522 61.2747 159.442 61.5147 159.442 61.824C159.453 62.112 159.549 62.3467 159.73 62.528C159.911 62.7093 160.157 62.8587 160.466 62.976C160.775 63.0827 161.117 63.1893 161.49 63.296C161.831 63.3813 162.157 63.4827 162.466 63.6C162.786 63.7067 163.074 63.8507 163.33 64.032C163.586 64.2133 163.789 64.448 163.938 64.736C164.087 65.0133 164.162 65.3653 164.162 65.792C164.162 66.2827 164.023 66.7093 163.746 67.072C163.469 67.424 163.101 67.696 162.642 67.888C162.194 68.0693 161.709 68.16 161.186 68.16C160.599 68.16 160.018 68.048 159.442 67.824C158.877 67.6 158.386 67.2213 157.97 66.688ZM178.274 63.84C178.274 64.672 178.088 65.4133 177.714 66.064C177.352 66.7147 176.856 67.2267 176.226 67.6C175.608 67.9733 174.909 68.16 174.13 68.16C173.352 68.16 172.648 67.9733 172.018 67.6C171.389 67.2267 170.888 66.7147 170.514 66.064C170.152 65.4133 169.97 64.672 169.97 63.84C169.97 63.008 170.152 62.2667 170.514 61.616C170.888 60.9653 171.389 60.4533 172.018 60.08C172.648 59.7067 173.352 59.52 174.13 59.52C174.909 59.52 175.608 59.7067 176.226 60.08C176.856 60.4533 177.352 60.9653 177.714 61.616C178.088 62.2667 178.274 63.008 178.274 63.84ZM176.994 63.84C176.994 63.2213 176.866 62.6773 176.61 62.208C176.365 61.7387 176.024 61.3707 175.586 61.104C175.16 60.8373 174.674 60.704 174.13 60.704C173.586 60.704 173.096 60.8373 172.658 61.104C172.232 61.3707 171.89 61.7387 171.634 62.208C171.378 62.6773 171.25 63.2213 171.25 63.84C171.25 64.448 171.378 64.9867 171.634 65.456C171.89 65.9253 172.232 66.2987 172.658 66.576C173.096 66.8427 173.586 66.976 174.13 66.976C174.674 66.976 175.16 66.8427 175.586 66.576C176.024 66.2987 176.365 65.9253 176.61 65.456C176.866 64.9867 176.994 64.448 176.994 63.84ZM186.392 59.728C186.584 59.728 186.738 59.792 186.856 59.92C186.973 60.0373 187.032 60.1867 187.032 60.368V64.736C187.032 65.8133 186.728 66.6507 186.12 67.248C185.522 67.8347 184.685 68.128 183.608 68.128C182.541 68.128 181.704 67.8347 181.096 67.248C180.498 66.6507 180.2 65.8133 180.2 64.736V60.368C180.2 60.1867 180.258 60.0373 180.376 59.92C180.504 59.792 180.658 59.728 180.84 59.728C181.032 59.728 181.186 59.792 181.304 59.92C181.421 60.0373 181.48 60.1867 181.48 60.368V64.736C181.48 65.4613 181.666 66.0107 182.04 66.384C182.413 66.7573 182.936 66.944 183.608 66.944C184.301 66.944 184.829 66.7573 185.192 66.384C185.565 66.0107 185.752 65.4613 185.752 64.736V60.368C185.752 60.1867 185.81 60.0373 185.928 59.92C186.056 59.792 186.21 59.728 186.392 59.728ZM190.043 68C189.861 68 189.707 67.936 189.579 67.808C189.461 67.68 189.403 67.5253 189.403 67.344V60.368C189.403 60.1867 189.461 60.0373 189.579 59.92C189.707 59.792 189.861 59.728 190.043 59.728C190.235 59.728 190.389 59.792 190.507 59.92C190.624 60.0373 190.683 60.1867 190.683 60.368V62.48L190.491 62.144C190.555 61.8133 190.667 61.4933 190.827 61.184C190.997 60.864 191.211 60.5813 191.467 60.336C191.723 60.08 192.016 59.8827 192.347 59.744C192.677 59.5947 193.04 59.52 193.435 59.52C193.669 59.52 193.883 59.5787 194.075 59.696C194.277 59.8027 194.379 59.9573 194.379 60.16C194.379 60.384 194.32 60.5493 194.203 60.656C194.085 60.7627 193.952 60.816 193.803 60.816C193.664 60.816 193.531 60.7893 193.403 60.736C193.275 60.672 193.115 60.64 192.923 60.64C192.656 60.64 192.389 60.7147 192.123 60.864C191.867 61.0027 191.627 61.2053 191.403 61.472C191.189 61.7387 191.013 62.0427 190.875 62.384C190.747 62.7147 190.683 63.072 190.683 63.456V67.344C190.683 67.5253 190.619 67.68 190.491 67.808C190.373 67.936 190.224 68 190.043 68ZM207.047 56.16C207.228 56.16 207.378 56.224 207.495 56.352C207.623 56.4693 207.687 56.6187 207.687 56.8V67.344C207.687 67.5253 207.623 67.68 207.495 67.808C207.378 67.936 207.228 68 207.047 68C206.855 68 206.7 67.936 206.583 67.808C206.466 67.68 206.407 67.5253 206.407 67.344V65.824L206.711 65.712C206.711 65.968 206.631 66.24 206.471 66.528C206.311 66.8053 206.092 67.0667 205.815 67.312C205.538 67.5573 205.207 67.76 204.823 67.92C204.45 68.08 204.044 68.16 203.607 68.16C202.892 68.16 202.242 67.9733 201.655 67.6C201.079 67.2267 200.62 66.7147 200.279 66.064C199.948 65.4133 199.783 64.672 199.783 63.84C199.783 62.9973 199.948 62.2507 200.279 61.6C200.62 60.9493 201.079 60.4427 201.655 60.08C202.231 59.7067 202.871 59.52 203.575 59.52C204.023 59.52 204.444 59.5947 204.839 59.744C205.234 59.8933 205.575 60.096 205.863 60.352C206.162 60.608 206.396 60.8907 206.567 61.2C206.738 61.5093 206.823 61.8187 206.823 62.128L206.407 62.032V56.8C206.407 56.6187 206.466 56.4693 206.583 56.352C206.7 56.224 206.855 56.16 207.047 56.16ZM203.751 66.976C204.284 66.976 204.754 66.8427 205.159 66.576C205.575 66.2987 205.895 65.9253 206.119 65.456C206.354 64.976 206.471 64.4373 206.471 63.84C206.471 63.232 206.354 62.6933 206.119 62.224C205.895 61.7547 205.575 61.3867 205.159 61.12C204.754 60.8427 204.284 60.704 203.751 60.704C203.228 60.704 202.759 60.8427 202.343 61.12C201.938 61.3867 201.618 61.7547 201.383 62.224C201.148 62.6933 201.031 63.232 201.031 63.84C201.031 64.4267 201.148 64.96 201.383 65.44C201.618 65.9093 201.938 66.2827 202.343 66.56C202.759 66.8373 203.228 66.976 203.751 66.976ZM216.875 59.648C217.056 59.648 217.206 59.712 217.323 59.84C217.451 59.9573 217.515 60.1067 217.515 60.288V67.344C217.515 67.5253 217.451 67.68 217.323 67.808C217.206 67.936 217.056 68 216.875 68C216.683 68 216.528 67.936 216.411 67.808C216.294 67.68 216.235 67.5253 216.235 67.344V65.824L216.539 65.792C216.539 66.0267 216.459 66.2827 216.299 66.56C216.139 66.8373 215.92 67.0987 215.643 67.344C215.366 67.5787 215.035 67.776 214.651 67.936C214.278 68.0853 213.872 68.16 213.435 68.16C212.71 68.16 212.059 67.9733 211.483 67.6C210.907 67.216 210.448 66.6987 210.107 66.048C209.776 65.3973 209.611 64.656 209.611 63.824C209.611 62.9813 209.776 62.24 210.107 61.6C210.448 60.9493 210.907 60.4427 211.483 60.08C212.059 59.7067 212.699 59.52 213.403 59.52C213.862 59.52 214.288 59.5947 214.683 59.744C215.078 59.8933 215.419 60.096 215.707 60.352C216.006 60.608 216.235 60.8907 216.395 61.2C216.566 61.5093 216.651 61.8187 216.651 62.128L216.235 62.032V60.288C216.235 60.1067 216.294 59.9573 216.411 59.84C216.528 59.712 216.683 59.648 216.875 59.648ZM213.579 66.976C214.112 66.976 214.582 66.8373 214.987 66.56C215.403 66.2827 215.723 65.9093 215.947 65.44C216.182 64.96 216.299 64.4213 216.299 63.824C216.299 63.2373 216.182 62.7093 215.947 62.24C215.723 61.76 215.403 61.3867 214.987 61.12C214.582 60.8427 214.112 60.704 213.579 60.704C213.056 60.704 212.587 60.8373 212.171 61.104C211.766 61.3707 211.446 61.7387 211.211 62.208C210.976 62.6773 210.859 63.216 210.859 63.824C210.859 64.4213 210.971 64.96 211.195 65.44C211.43 65.9093 211.75 66.2827 212.155 66.56C212.571 66.8373 213.046 66.976 213.579 66.976ZM221.119 67.344C221.119 67.5253 221.055 67.68 220.927 67.808C220.81 67.936 220.66 68 220.479 68C220.287 68 220.132 67.936 220.015 67.808C219.898 67.68 219.839 67.5253 219.839 67.344V60.24C219.839 60.0587 219.898 59.9093 220.015 59.792C220.143 59.664 220.298 59.6 220.479 59.6C220.66 59.6 220.81 59.664 220.927 59.792C221.055 59.9093 221.119 60.0587 221.119 60.24V67.344ZM220.479 58.528C220.212 58.528 220.015 58.4747 219.887 58.368C219.759 58.2613 219.695 58.096 219.695 57.872V57.648C219.695 57.424 219.764 57.2587 219.903 57.152C220.042 57.0453 220.239 56.992 220.495 56.992C220.751 56.992 220.943 57.0453 221.071 57.152C221.199 57.2587 221.263 57.424 221.263 57.648V57.872C221.263 58.096 221.194 58.2613 221.055 58.368C220.927 58.4747 220.735 58.528 220.479 58.528ZM224.826 67.344C224.826 67.5253 224.762 67.68 224.634 67.808C224.506 67.936 224.352 68 224.17 68C223.989 68 223.84 67.936 223.722 67.808C223.605 67.68 223.546 67.5253 223.546 67.344V56.8C223.546 56.6187 223.605 56.4693 223.722 56.352C223.85 56.224 224.005 56.16 224.186 56.16C224.378 56.16 224.533 56.224 224.65 56.352C224.768 56.4693 224.826 56.6187 224.826 56.8V67.344ZM233.267 59.6C233.448 59.6 233.597 59.664 233.715 59.792C233.843 59.9093 233.907 60.0587 233.907 60.24V67.216C233.907 68.112 233.731 68.8533 233.379 69.44C233.027 70.0373 232.552 70.48 231.955 70.768C231.368 71.056 230.701 71.2 229.955 71.2C229.539 71.2 229.139 71.1573 228.755 71.072C228.371 70.9867 228.056 70.8747 227.811 70.736C227.608 70.64 227.464 70.5173 227.379 70.368C227.304 70.2293 227.293 70.08 227.347 69.92C227.421 69.728 227.528 69.5947 227.667 69.52C227.816 69.4453 227.971 69.4453 228.131 69.52C228.301 69.5947 228.547 69.696 228.867 69.824C229.197 69.9627 229.565 70.032 229.971 70.032C230.525 70.032 231 69.9253 231.395 69.712C231.789 69.4987 232.093 69.184 232.307 68.768C232.52 68.3627 232.627 67.856 232.627 67.248V66.112L232.819 66.512C232.648 66.8427 232.419 67.1307 232.131 67.376C231.843 67.6213 231.512 67.8133 231.139 67.952C230.765 68.0907 230.355 68.16 229.907 68.16C229.299 68.16 228.781 68.032 228.355 67.776C227.939 67.5093 227.619 67.1467 227.395 66.688C227.181 66.2187 227.075 65.68 227.075 65.072V60.24C227.075 60.0587 227.133 59.9093 227.251 59.792C227.379 59.664 227.533 59.6 227.715 59.6C227.907 59.6 228.061 59.664 228.179 59.792C228.296 59.9093 228.355 60.0587 228.355 60.24V64.784C228.355 65.5093 228.515 66.0587 228.835 66.432C229.155 66.7947 229.651 66.976 230.323 66.976C230.749 66.976 231.133 66.88 231.475 66.688C231.827 66.496 232.104 66.2347 232.307 65.904C232.52 65.5627 232.627 65.1893 232.627 64.784V60.24C232.627 60.0587 232.685 59.9093 232.803 59.792C232.92 59.664 233.075 59.6 233.267 59.6ZM247.5 59.648C247.681 59.648 247.831 59.712 247.948 59.84C248.076 59.9573 248.14 60.1067 248.14 60.288V67.344C248.14 67.5253 248.076 67.68 247.948 67.808C247.831 67.936 247.681 68 247.5 68C247.308 68 247.153 67.936 247.036 67.808C246.919 67.68 246.86 67.5253 246.86 67.344V65.824L247.164 65.792C247.164 66.0267 247.084 66.2827 246.924 66.56C246.764 66.8373 246.545 67.0987 246.268 67.344C245.991 67.5787 245.66 67.776 245.276 67.936C244.903 68.0853 244.497 68.16 244.06 68.16C243.335 68.16 242.684 67.9733 242.108 67.6C241.532 67.216 241.073 66.6987 240.732 66.048C240.401 65.3973 240.236 64.656 240.236 63.824C240.236 62.9813 240.401 62.24 240.732 61.6C241.073 60.9493 241.532 60.4427 242.108 60.08C242.684 59.7067 243.324 59.52 244.028 59.52C244.487 59.52 244.913 59.5947 245.308 59.744C245.703 59.8933 246.044 60.096 246.332 60.352C246.631 60.608 246.86 60.8907 247.02 61.2C247.191 61.5093 247.276 61.8187 247.276 62.128L246.86 62.032V60.288C246.86 60.1067 246.919 59.9573 247.036 59.84C247.153 59.712 247.308 59.648 247.5 59.648ZM244.204 66.976C244.737 66.976 245.207 66.8373 245.612 66.56C246.028 66.2827 246.348 65.9093 246.572 65.44C246.807 64.96 246.924 64.4213 246.924 63.824C246.924 63.2373 246.807 62.7093 246.572 62.24C246.348 61.76 246.028 61.3867 245.612 61.12C245.207 60.8427 244.737 60.704 244.204 60.704C243.681 60.704 243.212 60.8373 242.796 61.104C242.391 61.3707 242.071 61.7387 241.836 62.208C241.601 62.6773 241.484 63.216 241.484 63.824C241.484 64.4213 241.596 64.96 241.82 65.44C242.055 65.9093 242.375 66.2827 242.78 66.56C243.196 66.8373 243.671 66.976 244.204 66.976ZM254.464 59.6C255.189 59.6 255.776 59.7867 256.224 60.16C256.683 60.5227 256.987 61.04 257.136 61.712H256.896L257.008 61.424C257.136 61.1253 257.355 60.8373 257.664 60.56C257.973 60.2827 258.331 60.0533 258.736 59.872C259.141 59.6907 259.563 59.6 260 59.6C260.704 59.6 261.259 59.7547 261.664 60.064C262.069 60.3627 262.357 60.768 262.528 61.28C262.709 61.7813 262.8 62.3467 262.8 62.976V67.344C262.8 67.5253 262.736 67.68 262.608 67.808C262.491 67.936 262.341 68 262.16 68C261.968 68 261.813 67.936 261.696 67.808C261.579 67.68 261.52 67.5253 261.52 67.344V63.008C261.52 62.592 261.456 62.2187 261.328 61.888C261.211 61.5467 261.013 61.28 260.736 61.088C260.469 60.8853 260.101 60.784 259.632 60.784C259.195 60.784 258.795 60.8853 258.432 61.088C258.069 61.28 257.781 61.5467 257.568 61.888C257.355 62.2187 257.248 62.592 257.248 63.008V67.344C257.248 67.5253 257.189 67.68 257.072 67.808C256.955 67.936 256.8 68 256.608 68C256.427 68 256.272 67.936 256.144 67.808C256.027 67.68 255.968 67.5253 255.968 67.344V62.96C255.968 62.5547 255.909 62.192 255.792 61.872C255.685 61.5413 255.499 61.28 255.232 61.088C254.965 60.8853 254.597 60.784 254.128 60.784C253.701 60.784 253.312 60.8853 252.96 61.088C252.608 61.28 252.325 61.5413 252.112 61.872C251.899 62.192 251.792 62.5547 251.792 62.96V67.344C251.792 67.5253 251.728 67.68 251.6 67.808C251.483 67.936 251.333 68 251.152 68C250.971 68 250.816 67.936 250.688 67.808C250.571 67.68 250.512 67.5253 250.512 67.344V60.368C250.512 60.1867 250.571 60.0373 250.688 59.92C250.816 59.792 250.971 59.728 251.152 59.728C251.344 59.728 251.499 59.792 251.616 59.92C251.733 60.0373 251.792 60.1867 251.792 60.368V61.584L251.44 61.968C251.483 61.6907 251.589 61.4133 251.76 61.136C251.941 60.8587 252.171 60.6027 252.448 60.368C252.725 60.1333 253.035 59.9467 253.376 59.808C253.717 59.6693 254.08 59.6 254.464 59.6ZM271.984 59.648C272.166 59.648 272.315 59.712 272.432 59.84C272.56 59.9573 272.624 60.1067 272.624 60.288V67.344C272.624 67.5253 272.56 67.68 272.432 67.808C272.315 67.936 272.166 68 271.984 68C271.792 68 271.638 67.936 271.52 67.808C271.403 67.68 271.344 67.5253 271.344 67.344V65.824L271.648 65.792C271.648 66.0267 271.568 66.2827 271.408 66.56C271.248 66.8373 271.03 67.0987 270.752 67.344C270.475 67.5787 270.144 67.776 269.76 67.936C269.387 68.0853 268.982 68.16 268.544 68.16C267.819 68.16 267.168 67.9733 266.592 67.6C266.016 67.216 265.558 66.6987 265.216 66.048C264.886 65.3973 264.72 64.656 264.72 63.824C264.72 62.9813 264.886 62.24 265.216 61.6C265.558 60.9493 266.016 60.4427 266.592 60.08C267.168 59.7067 267.808 59.52 268.512 59.52C268.971 59.52 269.398 59.5947 269.792 59.744C270.187 59.8933 270.528 60.096 270.816 60.352C271.115 60.608 271.344 60.8907 271.504 61.2C271.675 61.5093 271.76 61.8187 271.76 62.128L271.344 62.032V60.288C271.344 60.1067 271.403 59.9573 271.52 59.84C271.638 59.712 271.792 59.648 271.984 59.648ZM268.688 66.976C269.222 66.976 269.691 66.8373 270.096 66.56C270.512 66.2827 270.832 65.9093 271.056 65.44C271.291 64.96 271.408 64.4213 271.408 63.824C271.408 63.2373 271.291 62.7093 271.056 62.24C270.832 61.76 270.512 61.3867 270.096 61.12C269.691 60.8427 269.222 60.704 268.688 60.704C268.166 60.704 267.696 60.8373 267.28 61.104C266.875 61.3707 266.555 61.7387 266.32 62.208C266.086 62.6773 265.968 63.216 265.968 63.824C265.968 64.4213 266.08 64.96 266.304 65.44C266.539 65.9093 266.859 66.2827 267.264 66.56C267.68 66.8373 268.155 66.976 268.688 66.976ZM280.245 66.816C280.415 66.816 280.559 66.8747 280.677 66.992C280.794 67.0987 280.853 67.2373 280.853 67.408C280.853 67.568 280.794 67.7067 280.677 67.824C280.559 67.9413 280.415 68 280.245 68H275.061C274.869 68 274.719 67.9307 274.613 67.792C274.506 67.6533 274.453 67.5253 274.453 67.408C274.463 67.3013 274.479 67.2107 274.501 67.136C274.522 67.0613 274.57 66.976 274.645 66.88L279.221 60.688L279.237 60.864H275.365C275.194 60.864 275.05 60.8053 274.933 60.688C274.815 60.5707 274.757 60.4267 274.757 60.256C274.757 60.096 274.815 59.9627 274.933 59.856C275.05 59.7387 275.194 59.68 275.365 59.68H280.277C280.447 59.68 280.586 59.744 280.693 59.872C280.81 59.9893 280.869 60.1387 280.869 60.32C280.858 60.3947 280.842 60.4693 280.821 60.544C280.799 60.608 280.757 60.688 280.693 60.784L276.164 66.896L276.053 66.816H280.245ZM283.932 67.344C283.932 67.5253 283.868 67.68 283.74 67.808C283.622 67.936 283.473 68 283.292 68C283.1 68 282.945 67.936 282.828 67.808C282.71 67.68 282.652 67.5253 282.652 67.344V60.24C282.652 60.0587 282.71 59.9093 282.828 59.792C282.956 59.664 283.11 59.6 283.292 59.6C283.473 59.6 283.622 59.664 283.74 59.792C283.868 59.9093 283.932 60.0587 283.932 60.24V67.344ZM283.292 58.528C283.025 58.528 282.828 58.4747 282.7 58.368C282.572 58.2613 282.508 58.096 282.508 57.872V57.648C282.508 57.424 282.577 57.2587 282.716 57.152C282.854 57.0453 283.052 56.992 283.308 56.992C283.564 56.992 283.756 57.0453 283.884 57.152C284.012 57.2587 284.076 57.424 284.076 57.648V57.872C284.076 58.096 284.006 58.2613 283.868 58.368C283.74 58.4747 283.548 58.528 283.292 58.528ZM290.343 59.52C291.068 59.52 291.639 59.6693 292.055 59.968C292.471 60.2667 292.764 60.6667 292.935 61.168C293.116 61.6693 293.207 62.2293 293.207 62.848V67.344C293.207 67.5253 293.143 67.68 293.015 67.808C292.898 67.936 292.748 68 292.567 68C292.386 68 292.231 67.936 292.103 67.808C291.986 67.68 291.927 67.5253 291.927 67.344V62.88C291.927 62.4747 291.863 62.112 291.735 61.792C291.618 61.4613 291.415 61.2 291.127 61.008C290.85 60.8053 290.466 60.704 289.975 60.704C289.527 60.704 289.116 60.8053 288.743 61.008C288.37 61.2 288.071 61.4613 287.847 61.792C287.623 62.112 287.511 62.4747 287.511 62.88V67.344C287.511 67.5253 287.447 67.68 287.319 67.808C287.202 67.936 287.052 68 286.871 68C286.69 68 286.535 67.936 286.407 67.808C286.29 67.68 286.231 67.5253 286.231 67.344V60.368C286.231 60.1867 286.29 60.0373 286.407 59.92C286.535 59.792 286.69 59.728 286.871 59.728C287.063 59.728 287.218 59.792 287.335 59.92C287.452 60.0373 287.511 60.1867 287.511 60.368V61.504L287.191 61.856C287.244 61.5787 287.367 61.3013 287.559 61.024C287.751 60.736 287.991 60.48 288.279 60.256C288.567 60.032 288.887 59.856 289.239 59.728C289.591 59.5893 289.959 59.52 290.343 59.52ZM299.047 59.52C299.505 59.52 299.932 59.6 300.327 59.76C300.721 59.9093 301.063 60.1067 301.351 60.352C301.649 60.5973 301.879 60.8533 302.039 61.12C302.209 61.3867 302.295 61.6373 302.295 61.872L301.991 61.68V60.288C301.991 60.1067 302.049 59.9573 302.167 59.84C302.284 59.712 302.439 59.648 302.631 59.648C302.812 59.648 302.961 59.712 303.079 59.84C303.207 59.9573 303.271 60.1067 303.271 60.288V67.296C303.271 68.1707 303.084 68.896 302.711 69.472C302.348 70.048 301.857 70.48 301.239 70.768C300.62 71.056 299.927 71.2 299.159 71.2C298.839 71.2 298.487 71.1573 298.103 71.072C297.719 70.9867 297.377 70.88 297.079 70.752C296.78 70.6347 296.588 70.512 296.503 70.384C296.343 70.2773 296.241 70.1547 296.199 70.016C296.167 69.888 296.193 69.7653 296.279 69.648C296.375 69.4987 296.497 69.424 296.647 69.424C296.807 69.424 297.004 69.472 297.239 69.568C297.335 69.6 297.484 69.6533 297.687 69.728C297.9 69.8027 298.135 69.8667 298.391 69.92C298.657 69.984 298.919 70.016 299.175 70.016C300.081 70.016 300.775 69.776 301.255 69.296C301.745 68.8267 301.991 68.2027 301.991 67.424V65.936L302.167 66.016C302.103 66.3147 301.969 66.592 301.767 66.848C301.575 67.104 301.335 67.3333 301.047 67.536C300.769 67.728 300.46 67.8827 300.119 68C299.777 68.1067 299.431 68.16 299.079 68.16C298.332 68.16 297.66 67.9733 297.063 67.6C296.465 67.2267 295.991 66.7147 295.639 66.064C295.297 65.4133 295.127 64.672 295.127 63.84C295.127 62.9973 295.297 62.2507 295.639 61.6C295.991 60.9493 296.46 60.4427 297.047 60.08C297.644 59.7067 298.311 59.52 299.047 59.52ZM299.207 60.704C298.663 60.704 298.172 60.8427 297.735 61.12C297.308 61.3867 296.972 61.7547 296.727 62.224C296.492 62.6933 296.375 63.232 296.375 63.84C296.375 64.4267 296.492 64.96 296.727 65.44C296.972 65.9093 297.308 66.2827 297.735 66.56C298.172 66.8373 298.663 66.976 299.207 66.976C299.761 66.976 300.252 66.8427 300.679 66.576C301.105 66.2987 301.441 65.9253 301.687 65.456C301.932 64.9867 302.055 64.448 302.055 63.84C302.055 63.2213 301.932 62.6773 301.687 62.208C301.441 61.7387 301.105 61.3707 300.679 61.104C300.252 60.8373 299.761 60.704 299.207 60.704ZM95 76.16C95.1813 76.16 95.3307 76.224 95.448 76.352C95.576 76.4693 95.64 76.6187 95.64 76.8V87.344C95.64 87.5253 95.576 87.68 95.448 87.808C95.3307 87.936 95.1813 88 95 88C94.808 88 94.6533 87.936 94.536 87.808C94.4187 87.68 94.36 87.5253 94.36 87.344V85.824L94.664 85.712C94.664 85.968 94.584 86.24 94.424 86.528C94.264 86.8053 94.0453 87.0667 93.768 87.312C93.4907 87.5573 93.16 87.76 92.776 87.92C92.4027 88.08 91.9973 88.16 91.56 88.16C90.8453 88.16 90.1947 87.9733 89.608 87.6C89.032 87.2267 88.5733 86.7147 88.232 86.064C87.9013 85.4133 87.736 84.672 87.736 83.84C87.736 82.9973 87.9013 82.2507 88.232 81.6C88.5733 80.9493 89.032 80.4427 89.608 80.08C90.184 79.7067 90.824 79.52 91.528 79.52C91.976 79.52 92.3973 79.5947 92.792 79.744C93.1867 79.8933 93.528 80.096 93.816 80.352C94.1147 80.608 94.3493 80.8907 94.52 81.2C94.6907 81.5093 94.776 81.8187 94.776 82.128L94.36 82.032V76.8C94.36 76.6187 94.4187 76.4693 94.536 76.352C94.6533 76.224 94.808 76.16 95 76.16ZM91.704 86.976C92.2373 86.976 92.7067 86.8427 93.112 86.576C93.528 86.2987 93.848 85.9253 94.072 85.456C94.3067 84.976 94.424 84.4373 94.424 83.84C94.424 83.232 94.3067 82.6933 94.072 82.224C93.848 81.7547 93.528 81.3867 93.112 81.12C92.7067 80.8427 92.2373 80.704 91.704 80.704C91.1813 80.704 90.712 80.8427 90.296 81.12C89.8907 81.3867 89.5707 81.7547 89.336 82.224C89.1013 82.6933 88.984 83.232 88.984 83.84C88.984 84.4267 89.1013 84.96 89.336 85.44C89.5707 85.9093 89.8907 86.2827 90.296 86.56C90.712 86.8373 91.1813 86.976 91.704 86.976ZM101.836 88.16C100.983 88.16 100.236 87.9787 99.5961 87.616C98.9561 87.2533 98.4548 86.7573 98.0921 86.128C97.7401 85.488 97.5641 84.752 97.5641 83.92C97.5641 82.992 97.7455 82.2027 98.1081 81.552C98.4815 80.8907 98.9615 80.3893 99.5481 80.048C100.145 79.696 100.775 79.52 101.436 79.52C101.927 79.52 102.401 79.6107 102.86 79.792C103.319 79.9733 103.724 80.24 104.076 80.592C104.428 80.9333 104.711 81.3493 104.924 81.84C105.137 82.32 105.249 82.8587 105.26 83.456C105.26 83.6267 105.196 83.7707 105.068 83.888C104.94 84.0053 104.791 84.064 104.62 84.064H98.3001L98.0121 82.96H104.172L103.916 83.184V82.832C103.873 82.3947 103.724 82.0213 103.468 81.712C103.223 81.392 102.919 81.1467 102.556 80.976C102.204 80.8053 101.831 80.72 101.436 80.72C101.116 80.72 100.796 80.7787 100.476 80.896C100.167 81.0027 99.8841 81.184 99.6281 81.44C99.3828 81.6853 99.1801 82.0053 99.0201 82.4C98.8708 82.7947 98.7961 83.2693 98.7961 83.824C98.7961 84.4427 98.9188 84.9867 99.1641 85.456C99.4201 85.9253 99.7721 86.2987 100.22 86.576C100.668 86.8427 101.191 86.976 101.788 86.976C102.161 86.976 102.487 86.928 102.764 86.832C103.041 86.736 103.281 86.6187 103.484 86.48C103.687 86.3307 103.857 86.1813 103.996 86.032C104.135 85.936 104.268 85.888 104.396 85.888C104.556 85.888 104.684 85.9413 104.78 86.048C104.887 86.1547 104.94 86.2827 104.94 86.432C104.94 86.6133 104.855 86.7733 104.684 86.912C104.385 87.2427 103.98 87.536 103.468 87.792C102.956 88.0373 102.412 88.16 101.836 88.16ZM114.062 79.648C114.244 79.648 114.393 79.712 114.51 79.84C114.639 79.9573 114.703 80.1067 114.703 80.288V87.344C114.703 87.5253 114.639 87.68 114.51 87.808C114.393 87.936 114.244 88 114.062 88C113.871 88 113.716 87.936 113.599 87.808C113.481 87.68 113.423 87.5253 113.423 87.344V85.824L113.727 85.792C113.727 86.0267 113.647 86.2827 113.487 86.56C113.327 86.8373 113.108 87.0987 112.831 87.344C112.553 87.5787 112.223 87.776 111.839 87.936C111.465 88.0853 111.06 88.16 110.623 88.16C109.897 88.16 109.247 87.9733 108.671 87.6C108.095 87.216 107.636 86.6987 107.295 86.048C106.964 85.3973 106.799 84.656 106.799 83.824C106.799 82.9813 106.964 82.24 107.295 81.6C107.636 80.9493 108.095 80.4427 108.671 80.08C109.247 79.7067 109.887 79.52 110.591 79.52C111.049 79.52 111.476 79.5947 111.871 79.744C112.265 79.8933 112.607 80.096 112.895 80.352C113.193 80.608 113.423 80.8907 113.583 81.2C113.753 81.5093 113.839 81.8187 113.839 82.128L113.423 82.032V80.288C113.423 80.1067 113.481 79.9573 113.599 79.84C113.716 79.712 113.871 79.648 114.062 79.648ZM110.766 86.976C111.3 86.976 111.769 86.8373 112.175 86.56C112.591 86.2827 112.911 85.9093 113.135 85.44C113.369 84.96 113.487 84.4213 113.487 83.824C113.487 83.2373 113.369 82.7093 113.135 82.24C112.911 81.76 112.591 81.3867 112.175 81.12C111.769 80.8427 111.3 80.704 110.766 80.704C110.244 80.704 109.775 80.8373 109.359 81.104C108.953 81.3707 108.633 81.7387 108.399 82.208C108.164 82.6773 108.047 83.216 108.047 83.824C108.047 84.4213 108.159 84.96 108.383 85.44C108.617 85.9093 108.937 86.2827 109.343 86.56C109.759 86.8373 110.233 86.976 110.766 86.976ZM118.483 87.344C118.483 87.5253 118.419 87.68 118.291 87.808C118.163 87.936 118.008 88 117.827 88C117.645 88 117.496 87.936 117.379 87.808C117.261 87.68 117.203 87.5253 117.203 87.344V76.8C117.203 76.6187 117.261 76.4693 117.379 76.352C117.507 76.224 117.661 76.16 117.843 76.16C118.035 76.16 118.189 76.224 118.307 76.352C118.424 76.4693 118.483 76.6187 118.483 76.8V87.344ZM120.501 86.688C120.405 86.5493 120.363 86.4053 120.373 86.256C120.384 86.096 120.475 85.9573 120.645 85.84C120.752 85.7653 120.875 85.7333 121.013 85.744C121.163 85.7547 121.296 85.824 121.413 85.952C121.712 86.304 122.053 86.5867 122.437 86.8C122.821 87.0027 123.291 87.104 123.845 87.104C124.101 87.0933 124.357 87.0507 124.613 86.976C124.869 86.9013 125.083 86.7733 125.253 86.592C125.435 86.4 125.525 86.1493 125.525 85.84C125.525 85.5413 125.435 85.3067 125.253 85.136C125.072 84.9547 124.837 84.8107 124.549 84.704C124.261 84.5867 123.947 84.4853 123.605 84.4C123.253 84.304 122.907 84.1973 122.565 84.08C122.224 83.952 121.915 83.7973 121.637 83.616C121.371 83.424 121.152 83.1893 120.981 82.912C120.821 82.624 120.741 82.2773 120.741 81.872C120.741 81.392 120.869 80.976 121.125 80.624C121.392 80.272 121.744 80 122.181 79.808C122.629 79.616 123.115 79.52 123.637 79.52C123.936 79.52 124.245 79.5573 124.565 79.632C124.896 79.696 125.216 79.8133 125.525 79.984C125.835 80.144 126.107 80.368 126.341 80.656C126.437 80.7627 126.491 80.896 126.501 81.056C126.512 81.216 126.443 81.36 126.293 81.488C126.176 81.5733 126.043 81.6107 125.893 81.6C125.755 81.5893 125.637 81.536 125.541 81.44C125.317 81.1733 125.035 80.9707 124.693 80.832C124.363 80.6827 123.995 80.608 123.589 80.608C123.333 80.608 123.083 80.6453 122.837 80.72C122.592 80.7947 122.384 80.9227 122.213 81.104C122.053 81.2747 121.973 81.5147 121.973 81.824C121.984 82.112 122.08 82.3467 122.261 82.528C122.443 82.7093 122.688 82.8587 122.997 82.976C123.307 83.0827 123.648 83.1893 124.021 83.296C124.363 83.3813 124.688 83.4827 124.997 83.6C125.317 83.7067 125.605 83.8507 125.861 84.032C126.117 84.2133 126.32 84.448 126.469 84.736C126.619 85.0133 126.693 85.3653 126.693 85.792C126.693 86.2827 126.555 86.7093 126.277 87.072C126 87.424 125.632 87.696 125.173 87.888C124.725 88.0693 124.24 88.16 123.717 88.16C123.131 88.16 122.549 88.048 121.973 87.824C121.408 87.6 120.917 87.2213 120.501 86.688ZM139.766 79.648C139.947 79.648 140.096 79.712 140.214 79.84C140.342 79.9573 140.406 80.1067 140.406 80.288V87.344C140.406 87.5253 140.342 87.68 140.214 87.808C140.096 87.936 139.947 88 139.766 88C139.574 88 139.419 87.936 139.302 87.808C139.184 87.68 139.126 87.5253 139.126 87.344V85.824L139.43 85.792C139.43 86.0267 139.35 86.2827 139.19 86.56C139.03 86.8373 138.811 87.0987 138.534 87.344C138.256 87.5787 137.926 87.776 137.542 87.936C137.168 88.0853 136.763 88.16 136.326 88.16C135.6 88.16 134.95 87.9733 134.374 87.6C133.798 87.216 133.339 86.6987 132.998 86.048C132.667 85.3973 132.502 84.656 132.502 83.824C132.502 82.9813 132.667 82.24 132.998 81.6C133.339 80.9493 133.798 80.4427 134.374 80.08C134.95 79.7067 135.59 79.52 136.294 79.52C136.752 79.52 137.179 79.5947 137.574 79.744C137.968 79.8933 138.31 80.096 138.598 80.352C138.896 80.608 139.126 80.8907 139.286 81.2C139.456 81.5093 139.542 81.8187 139.542 82.128L139.126 82.032V80.288C139.126 80.1067 139.184 79.9573 139.302 79.84C139.419 79.712 139.574 79.648 139.766 79.648ZM136.47 86.976C137.003 86.976 137.472 86.8373 137.878 86.56C138.294 86.2827 138.614 85.9093 138.838 85.44C139.072 84.96 139.19 84.4213 139.19 83.824C139.19 83.2373 139.072 82.7093 138.838 82.24C138.614 81.76 138.294 81.3867 137.878 81.12C137.472 80.8427 137.003 80.704 136.47 80.704C135.947 80.704 135.478 80.8373 135.062 81.104C134.656 81.3707 134.336 81.7387 134.102 82.208C133.867 82.6773 133.75 83.216 133.75 83.824C133.75 84.4213 133.862 84.96 134.086 85.44C134.32 85.9093 134.64 86.2827 135.046 86.56C135.462 86.8373 135.936 86.976 136.47 86.976ZM146.89 79.52C147.615 79.52 148.186 79.6693 148.602 79.968C149.018 80.2667 149.311 80.6667 149.482 81.168C149.663 81.6693 149.754 82.2293 149.754 82.848V87.344C149.754 87.5253 149.69 87.68 149.562 87.808C149.444 87.936 149.295 88 149.114 88C148.932 88 148.778 87.936 148.65 87.808C148.532 87.68 148.474 87.5253 148.474 87.344V82.88C148.474 82.4747 148.41 82.112 148.282 81.792C148.164 81.4613 147.962 81.2 147.674 81.008C147.396 80.8053 147.012 80.704 146.522 80.704C146.074 80.704 145.663 80.8053 145.29 81.008C144.916 81.2 144.618 81.4613 144.394 81.792C144.17 82.112 144.058 82.4747 144.058 82.88V87.344C144.058 87.5253 143.994 87.68 143.866 87.808C143.748 87.936 143.599 88 143.418 88C143.236 88 143.082 87.936 142.954 87.808C142.836 87.68 142.778 87.5253 142.778 87.344V80.368C142.778 80.1867 142.836 80.0373 142.954 79.92C143.082 79.792 143.236 79.728 143.418 79.728C143.61 79.728 143.764 79.792 143.882 79.92C143.999 80.0373 144.058 80.1867 144.058 80.368V81.504L143.738 81.856C143.791 81.5787 143.914 81.3013 144.106 81.024C144.298 80.736 144.538 80.48 144.826 80.256C145.114 80.032 145.434 79.856 145.786 79.728C146.138 79.5893 146.506 79.52 146.89 79.52ZM158.938 76.16C159.119 76.16 159.268 76.224 159.385 76.352C159.514 76.4693 159.578 76.6187 159.578 76.8V87.344C159.578 87.5253 159.514 87.68 159.385 87.808C159.268 87.936 159.119 88 158.938 88C158.746 88 158.591 87.936 158.474 87.808C158.356 87.68 158.298 87.5253 158.298 87.344V85.824L158.602 85.712C158.602 85.968 158.522 86.24 158.362 86.528C158.202 86.8053 157.983 87.0667 157.706 87.312C157.428 87.5573 157.098 87.76 156.714 87.92C156.34 88.08 155.935 88.16 155.498 88.16C154.783 88.16 154.132 87.9733 153.546 87.6C152.97 87.2267 152.511 86.7147 152.17 86.064C151.839 85.4133 151.674 84.672 151.674 83.84C151.674 82.9973 151.839 82.2507 152.17 81.6C152.511 80.9493 152.97 80.4427 153.546 80.08C154.122 79.7067 154.762 79.52 155.466 79.52C155.914 79.52 156.335 79.5947 156.73 79.744C157.124 79.8933 157.466 80.096 157.754 80.352C158.052 80.608 158.287 80.8907 158.458 81.2C158.628 81.5093 158.714 81.8187 158.714 82.128L158.298 82.032V76.8C158.298 76.6187 158.356 76.4693 158.474 76.352C158.591 76.224 158.746 76.16 158.938 76.16ZM155.641 86.976C156.175 86.976 156.644 86.8427 157.05 86.576C157.466 86.2987 157.786 85.9253 158.01 85.456C158.244 84.976 158.362 84.4373 158.362 83.84C158.362 83.232 158.244 82.6933 158.01 82.224C157.786 81.7547 157.466 81.3867 157.05 81.12C156.644 80.8427 156.175 80.704 155.641 80.704C155.119 80.704 154.65 80.8427 154.234 81.12C153.828 81.3867 153.508 81.7547 153.274 82.224C153.039 82.6933 152.922 83.232 152.922 83.84C152.922 84.4267 153.039 84.96 153.274 85.44C153.508 85.9093 153.828 86.2827 154.234 86.56C154.65 86.8373 155.119 86.976 155.641 86.976ZM170.436 79.6C171.161 79.6 171.812 79.7813 172.388 80.144C172.964 80.5067 173.417 81.008 173.748 81.648C174.089 82.288 174.26 83.024 174.26 83.856C174.26 84.6773 174.089 85.4133 173.748 86.064C173.417 86.704 172.964 87.2107 172.388 87.584C171.823 87.9467 171.183 88.128 170.468 88.128C170.073 88.128 169.7 88.0693 169.348 87.952C169.007 87.824 168.692 87.664 168.404 87.472C168.127 87.2693 167.892 87.0453 167.7 86.8C167.508 86.544 167.369 86.2933 167.284 86.048L167.636 85.824V90.544C167.636 90.7253 167.577 90.88 167.46 91.008C167.343 91.136 167.188 91.2 166.996 91.2C166.815 91.2 166.66 91.136 166.532 91.008C166.415 90.8907 166.356 90.736 166.356 90.544V80.32C166.356 80.1387 166.415 79.9893 166.532 79.872C166.66 79.744 166.815 79.68 166.996 79.68C167.188 79.68 167.343 79.744 167.46 79.872C167.577 79.9893 167.636 80.1387 167.636 80.32V81.744L167.396 81.616C167.471 81.3493 167.599 81.0933 167.78 80.848C167.972 80.6027 168.201 80.3893 168.468 80.208C168.745 80.016 169.049 79.8667 169.38 79.76C169.721 79.6533 170.073 79.6 170.436 79.6ZM170.292 80.784C169.759 80.784 169.284 80.9173 168.868 81.184C168.463 81.4507 168.143 81.8133 167.908 82.272C167.684 82.7307 167.572 83.2587 167.572 83.856C167.572 84.4427 167.684 84.9707 167.908 85.44C168.143 85.9093 168.463 86.2773 168.868 86.544C169.284 86.8107 169.759 86.944 170.292 86.944C170.825 86.944 171.295 86.8107 171.7 86.544C172.105 86.2773 172.425 85.9093 172.66 85.44C172.895 84.9707 173.012 84.4427 173.012 83.856C173.012 83.2587 172.895 82.7307 172.66 82.272C172.425 81.8133 172.105 81.4507 171.7 81.184C171.295 80.9173 170.825 80.784 170.292 80.784ZM176.824 88C176.643 88 176.488 87.936 176.36 87.808C176.243 87.68 176.184 87.5253 176.184 87.344V80.368C176.184 80.1867 176.243 80.0373 176.36 79.92C176.488 79.792 176.643 79.728 176.824 79.728C177.016 79.728 177.171 79.792 177.288 79.92C177.405 80.0373 177.464 80.1867 177.464 80.368V82.48L177.272 82.144C177.336 81.8133 177.448 81.4933 177.608 81.184C177.779 80.864 177.992 80.5813 178.248 80.336C178.504 80.08 178.797 79.8827 179.128 79.744C179.459 79.5947 179.821 79.52 180.216 79.52C180.451 79.52 180.664 79.5787 180.856 79.696C181.059 79.8027 181.16 79.9573 181.16 80.16C181.16 80.384 181.101 80.5493 180.984 80.656C180.867 80.7627 180.733 80.816 180.584 80.816C180.445 80.816 180.312 80.7893 180.184 80.736C180.056 80.672 179.896 80.64 179.704 80.64C179.437 80.64 179.171 80.7147 178.904 80.864C178.648 81.0027 178.408 81.2053 178.184 81.472C177.971 81.7387 177.795 82.0427 177.656 82.384C177.528 82.7147 177.464 83.072 177.464 83.456V87.344C177.464 87.5253 177.4 87.68 177.272 87.808C177.155 87.936 177.005 88 176.824 88ZM183.838 87.344C183.838 87.5253 183.774 87.68 183.646 87.808C183.529 87.936 183.379 88 183.198 88C183.006 88 182.851 87.936 182.734 87.808C182.617 87.68 182.558 87.5253 182.558 87.344V80.24C182.558 80.0587 182.617 79.9093 182.734 79.792C182.862 79.664 183.017 79.6 183.198 79.6C183.379 79.6 183.529 79.664 183.646 79.792C183.774 79.9093 183.838 80.0587 183.838 80.24V87.344ZM183.198 78.528C182.931 78.528 182.734 78.4747 182.606 78.368C182.478 78.2613 182.414 78.096 182.414 77.872V77.648C182.414 77.424 182.483 77.2587 182.622 77.152C182.761 77.0453 182.958 76.992 183.214 76.992C183.47 76.992 183.662 77.0453 183.79 77.152C183.918 77.2587 183.982 77.424 183.982 77.648V77.872C183.982 78.096 183.913 78.2613 183.774 78.368C183.646 78.4747 183.454 78.528 183.198 78.528ZM189.817 79.52C190.361 79.52 190.852 79.5787 191.289 79.696C191.726 79.8133 192.073 79.9733 192.329 80.176C192.585 80.3787 192.713 80.608 192.713 80.864C192.713 81.0027 192.665 81.136 192.569 81.264C192.473 81.392 192.345 81.456 192.185 81.456C192.036 81.456 191.913 81.4293 191.817 81.376C191.732 81.3227 191.646 81.2533 191.561 81.168C191.486 81.0827 191.38 81.008 191.241 80.944C191.113 80.8693 190.926 80.8107 190.681 80.768C190.436 80.7253 190.19 80.704 189.945 80.704C189.358 80.704 188.841 80.8427 188.393 81.12C187.956 81.3973 187.609 81.7707 187.353 82.24C187.097 82.7093 186.969 83.2427 186.969 83.84C186.969 84.4373 187.092 84.9707 187.337 85.44C187.582 85.9093 187.924 86.2827 188.361 86.56C188.798 86.8373 189.305 86.976 189.881 86.976C190.254 86.976 190.553 86.944 190.777 86.88C191.001 86.816 191.188 86.7413 191.337 86.656C191.529 86.5493 191.673 86.4427 191.769 86.336C191.876 86.2293 192.014 86.176 192.185 86.176C192.366 86.176 192.505 86.2347 192.601 86.352C192.708 86.4693 192.761 86.6133 192.761 86.784C192.761 86.976 192.628 87.1787 192.361 87.392C192.094 87.6053 191.732 87.7867 191.273 87.936C190.825 88.0853 190.313 88.16 189.737 88.16C188.926 88.16 188.217 87.9733 187.609 87.6C187.001 87.216 186.526 86.6987 186.185 86.048C185.854 85.3867 185.689 84.6507 185.689 83.84C185.689 83.0293 185.86 82.2987 186.201 81.648C186.553 80.9973 187.038 80.48 187.657 80.096C188.276 79.712 188.996 79.52 189.817 79.52ZM198.258 88.16C197.405 88.16 196.658 87.9787 196.018 87.616C195.378 87.2533 194.877 86.7573 194.514 86.128C194.162 85.488 193.986 84.752 193.986 83.92C193.986 82.992 194.167 82.2027 194.53 81.552C194.903 80.8907 195.383 80.3893 195.97 80.048C196.567 79.696 197.197 79.52 197.858 79.52C198.349 79.52 198.823 79.6107 199.282 79.792C199.741 79.9733 200.146 80.24 200.498 80.592C200.85 80.9333 201.133 81.3493 201.346 81.84C201.559 82.32 201.671 82.8587 201.682 83.456C201.682 83.6267 201.618 83.7707 201.49 83.888C201.362 84.0053 201.213 84.064 201.042 84.064H194.722L194.434 82.96H200.594L200.338 83.184V82.832C200.295 82.3947 200.146 82.0213 199.89 81.712C199.645 81.392 199.341 81.1467 198.978 80.976C198.626 80.8053 198.253 80.72 197.858 80.72C197.538 80.72 197.218 80.7787 196.898 80.896C196.589 81.0027 196.306 81.184 196.05 81.44C195.805 81.6853 195.602 82.0053 195.442 82.4C195.293 82.7947 195.218 83.2693 195.218 83.824C195.218 84.4427 195.341 84.9867 195.586 85.456C195.842 85.9253 196.194 86.2987 196.642 86.576C197.09 86.8427 197.613 86.976 198.21 86.976C198.583 86.976 198.909 86.928 199.186 86.832C199.463 86.736 199.703 86.6187 199.906 86.48C200.109 86.3307 200.279 86.1813 200.418 86.032C200.557 85.936 200.69 85.888 200.818 85.888C200.978 85.888 201.106 85.9413 201.202 86.048C201.309 86.1547 201.362 86.2827 201.362 86.432C201.362 86.6133 201.277 86.7733 201.106 86.912C200.807 87.2427 200.402 87.536 199.89 87.792C199.378 88.0373 198.834 88.16 198.258 88.16ZM203.142 86.688C203.046 86.5493 203.003 86.4053 203.014 86.256C203.025 86.096 203.115 85.9573 203.286 85.84C203.393 85.7653 203.515 85.7333 203.654 85.744C203.803 85.7547 203.937 85.824 204.054 85.952C204.353 86.304 204.694 86.5867 205.078 86.8C205.462 87.0027 205.931 87.104 206.486 87.104C206.742 87.0933 206.998 87.0507 207.254 86.976C207.51 86.9013 207.723 86.7733 207.894 86.592C208.075 86.4 208.166 86.1493 208.166 85.84C208.166 85.5413 208.075 85.3067 207.894 85.136C207.713 84.9547 207.478 84.8107 207.19 84.704C206.902 84.5867 206.587 84.4853 206.246 84.4C205.894 84.304 205.547 84.1973 205.206 84.08C204.865 83.952 204.555 83.7973 204.278 83.616C204.011 83.424 203.793 83.1893 203.622 82.912C203.462 82.624 203.382 82.2773 203.382 81.872C203.382 81.392 203.51 80.976 203.766 80.624C204.033 80.272 204.385 80 204.822 79.808C205.27 79.616 205.755 79.52 206.278 79.52C206.577 79.52 206.886 79.5573 207.206 79.632C207.537 79.696 207.857 79.8133 208.166 79.984C208.475 80.144 208.747 80.368 208.982 80.656C209.078 80.7627 209.131 80.896 209.142 81.056C209.153 81.216 209.083 81.36 208.934 81.488C208.817 81.5733 208.683 81.6107 208.534 81.6C208.395 81.5893 208.278 81.536 208.182 81.44C207.958 81.1733 207.675 80.9707 207.334 80.832C207.003 80.6827 206.635 80.608 206.23 80.608C205.974 80.608 205.723 80.6453 205.478 80.72C205.233 80.7947 205.025 80.9227 204.854 81.104C204.694 81.2747 204.614 81.5147 204.614 81.824C204.625 82.112 204.721 82.3467 204.902 82.528C205.083 82.7093 205.329 82.8587 205.638 82.976C205.947 83.0827 206.289 83.1893 206.662 83.296C207.003 83.3813 207.329 83.4827 207.638 83.6C207.958 83.7067 208.246 83.8507 208.502 84.032C208.758 84.2133 208.961 84.448 209.11 84.736C209.259 85.0133 209.334 85.3653 209.334 85.792C209.334 86.2827 209.195 86.7093 208.918 87.072C208.641 87.424 208.273 87.696 207.814 87.888C207.366 88.0693 206.881 88.16 206.358 88.16C205.771 88.16 205.19 88.048 204.614 87.824C204.049 87.6 203.558 87.2213 203.142 86.688Z" fill="#ADADAD"/>
<defs>
<linearGradient id="paint0_linear_48_346" x1="28.6945" y1="73.3056" x2="66.7566" y2="35.2434" gradientUnits="userSpaceOnUse">
<stop stop-color="#00B59C"/>
<stop offset="1" stop-color="#9CFFAC"/>
</linearGradient>
<linearGradient id="paint1_linear_48_346" x1="33.0027" y1="68.9962" x2="71.5531" y2="30.4457" gradientUnits="userSpaceOnUse">
<stop stop-color="#C3FFE8"/>
<stop offset="0.9973" stop-color="#F0FFF4"/>
</linearGradient>
<clipPath id="clip0_48_346">
<rect width="52" height="52" fill="white" transform="translate(20 30)"/>
</clipPath>
</defs>
</svg>
